<svg height="507pt" viewBox="-7 0 507 507.312" width="507pt" xmlns="http://www.w3.org/2000/svg"><path d="m422.78125 507.3125h-240v-26.382812l-64-80v-85.617188c0-44.113281 35.886719-80 80-80v-160c0-26.464844 21.535156-48 48-48 26.460938 0 48 21.535156 48 48v115.777344l176 48v177.550781l-48 64zm0 0" fill="#ecce93"/><path d="m230.78125 347.3125v-317.054688c-18.578125 6.621094-32 24.222657-32 45.054688v304c17.679688 0 32-14.320312 32-32zm0 0" fill="#e5bd76"/><path d="m262.78125 411.3125h32v32h-32zm0 0" fill="#fff"/><path d="m326.78125 411.3125h32v32h-32zm0 0" fill="#fff"/><g fill="#80deea"><path d="m82.09375 22.625-22.625-22.625-59.3125 59.3125 59.3125 59.3125 22.625-22.625-20.691406-20.6875h41.378906v-32h-41.378906zm0 0"/><path d="m134.78125 43.3125h32v32h-32zm0 0"/><path d="m434.09375 0-22.625 22.625 20.6875 20.6875h-41.375v32h41.375l-20.6875 20.6875 22.625 22.625 59.308594-59.3125zm0 0"/><path d="m326.78125 43.3125h32v32h-32zm0 0"/></g></svg>