<svg height="502pt" viewBox="-37 0 502 502.624" width="502pt" xmlns="http://www.w3.org/2000/svg"><path d="m379.625 502.625h-240v-26.386719l-64-80v-85.613281c0-44.113281 35.886719-80 80-80v-160c0-26.464844 21.535156-48 48-48s48 21.535156 48 48v115.773438l176 48v177.554687l-48 64zm0 0" fill="#ecce93"/><path d="m118.9375 59.3125-59.3125-59.3125-59.3125 59.3125 22.625 22.625 20.6875-20.691406v105.378906h32v-105.378906l20.6875 20.691406zm0 0" fill="#00ddc2"/><path d="m43.625 198.625h32v32h-32zm0 0" fill="#00ddc2"/><path d="m187.625 342.625v-317.058594c-18.578125 6.625-32 24.226563-32 45.058594v304c17.679688 0 32-14.320312 32-32zm0 0" fill="#e5bd76"/><g fill="#fff"><path d="m219.625 406.625h32v32h-32zm0 0"/><path d="m283.625 406.625h32v32h-32zm0 0"/></g></svg>