<svg height="512pt" viewBox="-42 0 511 512" width="512pt" xmlns="http://www.w3.org/2000/svg"><path d="m379.8125 512h-240v-26.382812l-64-80v-85.617188c0-44.113281 35.886719-80 80-80v-160c0-26.464844 21.535156-48 48-48s48 21.535156 48 48v115.777344l176 48v177.550781l-48 64zm0 0" fill="#ecce93"/><path d="m187.8125 352v-317.054688c-18.578125 6.621094-32 24.222657-32 45.054688v304c17.679688 0 32-14.320312 32-32zm0 0" fill="#e5bd76"/><path d="m219.8125 416h32v32h-32zm0 0" fill="#fff"/><path d="m283.8125 416h32v32h-32zm0 0" fill="#fff"/><g fill="#e76e54"><path d="m96.5 164.6875-20.6875 20.6875v-121.375h-32v121.375l-20.6875-20.6875-22.625 22.625 59.3125 59.3125 59.3125-59.3125zm0 0"/><path d="m43.8125 0h32v32h-32zm0 0"/></g></svg>